<?xml version="1.0" standalone="no"?>
<!DOCTYPE svg PUBLIC "-//W3C//DTD SVG 20010904//EN"
 "http://www.w3.org/TR/2001/REC-SVG-20010904/DTD/svg10.dtd">
<svg version="1.0" xmlns="http://www.w3.org/2000/svg"
 width="198.000000pt" height="185.000000pt" viewBox="0 0 198.000000 185.000000"
 preserveAspectRatio="xMidYMid meet">

<g transform="translate(0.000000,185.000000) scale(0.100000,-0.100000)"
fill="#000000" stroke="none">
<path d="M42 1840 c-12 -5 -27 -21 -32 -36 -7 -17 -9 -331 -8 -891 l3 -865 24
-19 c21 -17 41 -19 180 -19 125 0 161 3 179 16 l22 15 0 385 0 386 45 -40 c58
-51 113 -66 218 -59 141 9 285 79 412 201 l60 57 -67 -50 c-37 -27 -98 -68
-135 -90 -225 -132 -442 -102 -460 64 -13 115 79 215 197 214 25 0 69 -8 98
-18 28 -10 52 -16 52 -14 0 2 -25 16 -57 30 -74 34 -176 42 -237 19 -24 -9
-62 -35 -85 -58 l-41 -42 0 396 c0 355 -2 397 -17 409 -19 17 -314 24 -351 9z
m66 -122 c7 -7 12 -16 12 -22 0 -5 -6 -3 -12 6 -7 9 -22 18 -33 21 -20 5 -20
5 1 6 11 0 25 -4 32 -11z m-67 -40 c-3 -21 -6 -26 -9 -15 -3 17 3 47 11 47 2
0 1 -15 -2 -32z m67 -15 c-32 -4 -38 -8 -38 -28 0 -17 12 -32 37 -50 44 -29
79 -32 87 -7 4 13 4 13 3 -3 -3 -28 -41 -31 -82 -6 -47 28 -44 10 5 -32 66
-56 156 -100 197 -95 32 4 33 3 17 -10 -36 -26 -120 2 -195 66 -41 35 -99 115
-99 136 0 6 5 4 10 -4 8 -12 10 -11 10 6 0 29 8 34 49 32 l36 -1 -37 -4z m78
-19 c18 -14 18 -14 -6 -3 -31 14 -36 19 -24 19 6 0 19 -7 30 -16z m-73 -1 c-7
-2 -19 -2 -25 0 -7 3 -2 5 12 5 14 0 19 -2 13 -5z m-59 -186 c4 -58 40 -115
83 -133 37 -16 45 -29 11 -19 -56 17 -107 98 -108 169 0 52 9 41 14 -17z m115
-82 c17 -8 31 -13 31 -10 0 3 6 1 13 -5 6 -6 31 -23 55 -39 40 -25 82 -74 82
-94 0 -5 -12 5 -26 22 -14 17 -58 50 -98 73 -92 53 -130 83 -152 116 -15 23
-11 21 24 -10 22 -20 55 -44 71 -53z m2 38 c13 -16 12 -17 -3 -4 -10 7 -18 15
-18 17 0 8 8 3 21 -13z m-43 -179 l37 -37 -38 32 c-21 17 -42 31 -47 31 -15 0
-12 -37 4 -69 19 -36 104 -114 116 -106 6 3 10 0 10 -8 0 -20 90 -78 115 -75
16 2 20 10 20 45 0 22 3 39 8 36 12 -7 8 -68 -5 -81 -18 -18 -59 -14 -96 8
-39 24 -39 24 -45 3 -3 -13 -5 -12 -6 5 -1 13 -23 45 -52 75 -70 71 -106 146
-82 170 12 13 23 7 61 -29z m216 -95 c-19 -22 -23 -22 -44 -9 -12 7 -12 12 -3
21 9 9 16 9 26 1 18 -15 27 -6 28 32 l2 31 4 -28 c3 -18 -2 -36 -13 -48z m-76
10 c-10 -5 -18 -18 -19 -27 0 -11 -2 -12 -6 -4 -6 15 14 42 31 42 6 0 3 -5 -6
-11z m-221 -71 c-3 -7 -5 -2 -5 12 0 14 2 19 5 13 2 -7 2 -19 0 -25z m54 -92
c28 -19 70 -21 89 -3 12 10 12 9 1 -5 -20 -27 -73 -23 -103 7 -22 21 -27 23
-32 10 -3 -9 -2 -14 3 -11 5 3 12 -1 15 -10 3 -8 2 -12 -4 -9 -6 3 -10 -1 -10
-10 0 -25 19 -55 35 -55 8 0 15 -4 15 -10 0 -5 -5 -10 -11 -10 -19 0 11 -29
50 -50 20 -11 32 -19 26 -19 -19 -1 -69 30 -84 52 l-16 22 -6 -30 c-6 -26 -7
-23 -7 15 0 25 -5 64 -11 88 -6 24 -8 49 -4 55 4 7 6 21 5 32 -1 12 3 7 12
-11 8 -17 24 -39 37 -48z m100 -100 c7 4 10 3 6 -3 -4 -6 8 -17 25 -24 41 -17
95 -64 114 -100 21 -42 17 -46 -9 -8 -12 18 -44 46 -70 63 -40 25 -49 27 -64
15 -15 -11 -16 -11 -6 1 10 11 4 19 -35 45 -26 18 -56 43 -67 55 -14 16 -3 12
37 -15 33 -22 62 -34 69 -29z m-10 27 c13 -16 12 -17 -3 -4 -10 7 -18 15 -18
17 0 8 8 3 21 -13z m-75 -145 l29 -33 -32 29 c-31 28 -38 36 -30 36 2 0 16
-15 33 -32z m251 -90 c-3 -7 -5 -2 -5 12 0 14 2 19 5 13 2 -7 2 -19 0 -25z
m-197 -19 c30 -6 69 -14 86 -20 17 -5 41 -11 52 -14 12 -2 30 -9 39 -15 15 -9
14 -10 -7 -5 -14 2 -53 9 -88 15 -35 6 -70 14 -79 17 -12 5 -14 2 -9 -8 6 -11
4 -10 -6 1 -7 8 -19 16 -27 18 -8 2 -24 10 -35 19 -20 15 -20 15 -1 9 11 -4
45 -12 75 -17z m182 -3 c10 5 10 4 2 -5 -16 -17 -54 -22 -54 -7 0 20 12 27 26
15 7 -6 19 -7 26 -3z m-91 -93 c13 -16 12 -17 -3 -4 -10 7 -18 15 -18 17 0 8
8 3 21 -13z m59 -48 c13 -14 21 -25 18 -25 -2 0 -15 11 -28 25 -13 14 -21 25
-18 25 2 0 15 -11 28 -25z m-250 -7 c0 -7 -5 -20 -10 -28 -8 -12 -10 -9 -10
13 0 15 5 27 10 27 6 0 10 -6 10 -12z m102 -109 c43 -22 48 -16 16 20 l-23 26
28 -24 c15 -14 27 -30 27 -38 0 -7 4 -13 8 -13 5 0 29 -14 55 -31 33 -22 54
-46 73 -85 15 -30 24 -57 21 -60 -3 -3 -10 10 -17 30 -12 36 -60 85 -109 111
-26 13 -30 13 -41 0 -30 -36 -109 6 -136 72 -24 56 -15 61 11 6 25 -55 76 -92
109 -80 25 10 19 20 -33 54 -27 17 -59 47 -71 65 l-23 33 33 -33 c19 -19 51
-42 72 -53z m198 21 c0 -15 -5 -31 -12 -38 -24 -24 -69 -8 -52 20 5 8 11 6 20
-6 21 -29 37 -9 31 37 -4 27 -2 36 4 26 5 -7 9 -25 9 -39z m-10 -265 c-16 -19
-50 -20 -50 0 0 18 26 20 33 3 3 -9 7 -7 12 5 4 10 10 16 13 13 3 -3 -1 -12
-8 -21z"/>
<path d="M1576 1824 c-14 -13 -16 -64 -16 -402 0 -351 -1 -384 -15 -364 -69
97 -283 109 -449 25 -75 -38 -153 -94 -221 -157 l-60 -57 74 56 c152 115 291
176 400 176 133 1 201 -58 201 -174 0 -68 -39 -135 -96 -163 -55 -27 -153 -25
-219 4 -64 30 -47 12 24 -24 112 -56 243 -43 318 33 l43 42 0 -393 c0 -354 2
-395 17 -407 23 -20 353 -20 376 0 16 12 17 88 17 902 0 794 -2 889 -16 903
-13 13 -45 16 -189 16 -144 0 -176 -3 -189 -16z m168 -122 c110 -72 144 -86
132 -56 -3 8 -2 12 4 9 18 -11 11 -35 -10 -35 -31 0 -112 44 -174 94 -30 25
-56 42 -59 39 -3 -2 -11 5 -17 17 -10 18 -9 20 2 13 7 -4 62 -41 122 -81z m-5
-64 c103 -67 129 -80 115 -56 -4 7 -3 8 5 4 6 -4 9 -12 6 -17 -4 -5 1 -9 10
-9 9 0 13 -4 10 -10 -9 -14 -65 12 -141 65 -70 49 -84 55 -63 28 13 -16 12
-17 -3 -5 -10 8 -16 19 -15 25 1 6 -4 11 -10 12 -7 0 -12 3 -10 7 1 4 -7 14
-18 23 -32 26 2 6 114 -67z m-1 -176 c120 -95 139 -106 145 -90 4 9 6 9 6 1 2
-20 -16 -24 -46 -11 -15 7 -30 15 -33 18 -3 4 -42 37 -87 74 -46 37 -83 70
-83 72 0 11 19 -1 98 -64z m138 -37 c-12 -9 -13 -15 -3 -25 10 -12 9 -12 -5
-1 -22 17 -24 45 -3 37 11 -4 15 2 16 22 2 26 2 26 6 3 3 -15 -1 -29 -11 -36z
m-161 -34 c17 -10 57 -42 90 -70 32 -28 62 -51 66 -51 4 0 10 8 12 18 4 16 5
16 6 -1 1 -23 -22 -32 -48 -18 -11 6 -48 36 -83 66 -35 31 -76 59 -93 64 -28
9 -28 9 -5 10 14 1 39 -8 55 -18z m-89 -38 c1 -32 -1 -34 -9 -16 -8 18 -5 53
5 53 2 0 3 -17 4 -37z m104 -63 c0 -31 -33 -60 -45 -40 -3 5 3 10 14 10 28 0
28 33 1 80 l-21 35 26 -28 c15 -17 25 -40 25 -57z m-101 -2 c-9 -16 -14 -19
-17 -9 -2 7 2 17 9 22 20 13 21 11 8 -13z m17 -30 c4 -7 3 -8 -4 -4 -7 4 -12
0 -12 -10 0 -10 -3 -15 -6 -11 -7 6 2 37 10 37 3 0 8 -5 12 -12z m81 -65 c26
-17 27 -17 20 0 -4 11 -3 16 3 12 6 -3 10 -12 10 -19 0 -8 13 -19 30 -26 32
-13 100 -82 100 -101 0 -7 -10 0 -21 15 -32 40 -99 80 -112 67 -19 -19 -62
-12 -87 14 -31 33 -44 32 -36 -2 5 -23 4 -25 -5 -10 -6 10 -7 26 -3 35 4 9 6
24 5 32 -1 12 0 12 7 2 5 -8 13 -14 18 -15 5 -1 9 -8 9 -15 0 -19 34 -42 62
-42 32 0 29 15 -10 39 -18 11 -42 30 -53 43 l-19 22 28 -17 c15 -9 39 -25 54
-34z m-26 -130 c13 -16 12 -17 -3 -4 -17 13 -22 21 -14 21 2 0 10 -8 17 -17z
m196 -55 c-3 -7 -5 -2 -5 12 0 14 2 19 5 13 2 -7 2 -19 0 -25z m-167 -19 c30
-6 63 -13 74 -16 13 -4 17 -1 12 8 -4 8 0 5 8 -5 16 -19 16 -19 16 2 0 23 14
29 25 12 4 -6 11 -7 17 -4 7 4 8 2 4 -4 -4 -7 -15 -12 -24 -12 -12 -1 -10 -5
8 -15 32 -18 28 -18 -65 0 -43 8 -82 12 -88 8 -6 -4 -7 -1 -3 6 5 8 3 11 -5
10 -8 -2 -27 5 -44 15 -16 9 -21 14 -10 11 11 -4 45 -11 75 -16z m119 -289
l44 -22 -6 21 c-3 12 -1 19 4 15 12 -7 11 -31 -1 -39 -16 -10 -99 32 -181 93
-109 81 -107 94 4 18 51 -35 112 -73 136 -86z m51 80 c0 -32 -18 -47 -46 -36
-9 3 -12 11 -8 18 6 9 9 9 12 0 8 -25 32 -12 32 18 0 17 2 30 5 30 3 0 5 -14
5 -30z m-183 -64 c113 -77 182 -116 163 -91 -14 19 -14 19 3 6 22 -18 22 -31
-2 -31 -20 0 -187 106 -210 133 -7 9 -17 15 -21 12 -4 -3 -10 2 -14 10 -3 8
-4 15 -1 15 2 0 39 -24 82 -54z m-40 -152 c-3 -3 -12 -4 -19 -1 -8 3 -5 6 6 6
11 1 17 -2 13 -5z m233 -58 c0 -12 -5 -7 -19 24 -11 24 -11 24 3 6 9 -11 16
-24 16 -30z m-283 12 c-3 -8 -6 -5 -6 6 -1 11 2 17 5 13 3 -3 4 -12 1 -19z
m73 -6 c-23 -4 -24 -5 -5 -13 16 -6 17 -8 3 -8 -9 -1 -20 4 -23 10 -5 7 -14 4
-26 -7 -10 -9 -19 -14 -19 -9 0 16 36 34 65 33 27 -1 28 -1 5 -6z m55 -12 c3
-6 -1 -7 -9 -4 -18 7 -21 14 -7 14 6 0 13 -4 16 -10z m125 -11 c0 -5 5 -7 12
-3 7 4 8 3 4 -4 -10 -17 -36 -15 -36 3 0 8 5 15 10 15 6 0 10 -5 10 -11z
m-163 -58 c29 -15 41 -14 46 4 3 11 4 10 3 -2 -3 -25 -52 -20 -82 8 -13 13
-24 18 -24 12 0 -33 155 -133 207 -133 25 -1 26 -2 9 -12 -41 -24 -150 36
-206 113 -33 46 -30 72 4 41 11 -11 31 -25 43 -31z m-56 -50 c-9 -6 -11 -16
-7 -27 6 -15 4 -16 -5 -7 -14 14 -5 43 13 43 10 0 9 -3 -1 -9z m49 -26 c13
-14 21 -25 18 -25 -2 0 -15 11 -28 25 -13 14 -21 25 -18 25 2 0 15 -11 28 -25z
m197 -17 c-3 -8 -6 -5 -6 6 -1 11 2 17 5 13 3 -3 4 -12 1 -19z m-164 -58 c4 0
5 6 1 13 -4 6 4 2 17 -11 13 -13 43 -37 67 -53 51 -35 82 -83 81 -124 -1 -19
-3 -23 -6 -10 -2 11 -6 29 -8 41 -7 31 -48 68 -111 100 -30 15 -72 43 -92 62
l-37 33 40 -25 c22 -14 43 -26 48 -26z m-106 -67 c-3 -10 -5 -2 -5 17 0 19 2
27 5 18 2 -10 2 -26 0 -35z m140 -45 c-2 -13 -4 -3 -4 22 0 25 2 35 4 23 2
-13 2 -33 0 -45z m-54 -39 l32 -2 -29 -4 c-21 -3 -36 3 -57 23 -16 15 -29 32
-29 37 0 5 12 -5 26 -22 18 -22 35 -31 57 -32z m153 -64 c1 -8 -4 -11 -12 -8
-15 6 -18 16 -7 26 8 9 16 1 19 -18z"/>
</g>
</svg>
